<?xml version="1.0" standalone="no"?>
<!DOCTYPE svg PUBLIC "-//W3C//DTD SVG 20010904//EN"
 "http://www.w3.org/TR/2001/REC-SVG-20010904/DTD/svg10.dtd">
<svg version="1.0" xmlns="http://www.w3.org/2000/svg"
 width="199.000000pt" height="20.000000pt" viewBox="0 0 199.000000 20.000000"
 preserveAspectRatio="xMidYMid meet">

<g transform="translate(0.000000,20.000000) scale(0.100000,-0.100000)"
fill="#000000" stroke="none">
<path d="M200 100 l0 -100 100 0 100 0 0 100 0 100 -100 0 -100 0 0 -100z"/>
<path d="M900 100 l0 -100 100 0 101 0 -3 98 -3 97 -97 3 -98 3 0 -101z"/>
<path d="M1600 100 l0 -100 95 0 95 0 0 100 0 100 -95 0 -95 0 0 -100z"/>
</g>
</svg>
