<?xml version="1.0" standalone="no"?>
<!DOCTYPE svg PUBLIC "-//W3C//DTD SVG 20010904//EN"
 "http://www.w3.org/TR/2001/REC-SVG-20010904/DTD/svg10.dtd">
<svg version="1.0" xmlns="http://www.w3.org/2000/svg"
 width="199.000000pt" height="20.000000pt" viewBox="0 0 199.000000 20.000000"
 preserveAspectRatio="xMidYMid meet">

<g transform="translate(0.000000,20.000000) scale(0.100000,-0.100000)"
fill="#000000" stroke="none">
<path d="M7 193 c-4 -3 -7 -48 -7 -100 l0 -93 100 0 100 0 0 100 0 100 -93 0
c-52 0 -97 -3 -100 -7z"/>
<path d="M360 100 l0 -100 100 0 100 0 0 100 0 100 -100 0 -100 0 0 -100z"/>
<path d="M720 100 l0 -100 100 0 101 0 -3 98 -3 97 -97 3 -98 3 0 -101z"/>
<path d="M1080 100 l0 -100 100 0 101 0 -3 98 -3 97 -97 3 -98 3 0 -101z"/>
<path d="M1440 100 l0 -100 95 0 95 0 0 100 0 100 -95 0 -95 0 0 -100z"/>
<path d="M1797 193 c-4 -3 -7 -48 -7 -100 l0 -93 100 0 100 0 0 100 0 100 -93
0 c-52 0 -97 -3 -100 -7z"/>
</g>
</svg>
